<?xml version="1.0" standalone="no"?>
<!DOCTYPE svg PUBLIC "-//W3C//DTD SVG 20010904//EN"
 "http://www.w3.org/TR/2001/REC-SVG-20010904/DTD/svg10.dtd">
<svg version="1.0" xmlns="http://www.w3.org/2000/svg"
 width="350.000000pt" height="350.000000pt" viewBox="0 0 350.000000 350.000000"
 preserveAspectRatio="xMidYMid meet">
<metadata>
Created by potrace 1.14, written by Peter Selinger 2001-2017
</metadata>
<g transform="translate(0.000000,350.000000) scale(0.100000,-0.100000)"
fill="#000000" stroke="none">
<path d="M0 1750 l0 -1750 1750 0 1750 0 0 1750 0 1750 -1750 0 -1750 0 0
-1750z m1340 1220 c123 -35 222 -93 323 -190 l90 -86 51 54 c144 153 330 232
546 234 219 1 402 -79 557 -246 189 -201 256 -485 177 -740 -47 -147 -127
-287 -239 -414 l-100 -113 -355 0 c-251 0 -365 -3 -390 -12 -30 -10 -42 -26
-90 -114 -30 -57 -57 -103 -60 -103 -3 0 -20 82 -38 183 -18 100 -59 326 -91
502 -55 299 -60 320 -85 342 -34 29 -78 29 -110 1 -22 -20 -39 -73 -121 -393
-52 -203 -98 -378 -101 -387 -5 -17 -27 -18 -274 -18 l-269 0 -54 58 c-124
131 -156 175 -221 305 -80 163 -99 237 -99 382 -1 316 191 605 481 726 150 62
316 72 472 29z m305 -1615 c42 -231 82 -429 88 -440 26 -50 98 -62 134 -22 11
12 64 106 117 210 l97 187 246 0 c143 0 243 -4 241 -9 -1 -5 -174 -198 -382
-430 -254 -281 -389 -423 -408 -430 -21 -8 -37 -7 -57 2 -16 6 -99 91 -186
187 -87 96 -259 286 -382 422 -122 136 -223 250 -223 253 0 3 105 5 234 5 216
0 235 1 258 19 21 17 34 56 83 246 32 124 59 224 61 222 2 -1 37 -192 79 -422z"/>
</g>
</svg>
